<?xml version="1.0" encoding="UTF-8"?>
<svg version="1.1" xmlns="http://www.w3.org/2000/svg" width="918" height="1032">
<path d="M0 0 C0.83321777 0.47727539 1.66643555 0.95455078 2.52490234 1.44628906 C7.5413361 4.33279584 12.53711151 7.2532345 17.5234375 10.19140625 C23.9517352 13.97898958 30.40921373 17.71436108 36.875 21.4375 C37.95426758 22.05947266 39.03353516 22.68144531 40.14550781 23.32226562 C42.33614966 24.5846694 44.526905 25.84687623 46.71777344 27.10888672 C52.14659942 30.23680148 57.57319281 33.36858448 63 36.5 C65.16665583 37.75001879 67.3333225 39.00001878 69.5 40.25 C108.49999999 62.75 108.49999999 62.75 111.74951172 64.62475586 C113.91776264 65.8756448 116.08605697 67.12645852 118.25439453 68.37719727 C123.64717915 71.48798335 129.03922093 74.60004238 134.4296875 77.71484375 C146.23629484 84.53502637 158.06027 91.3232326 169.90472412 98.07736206 C178.94329428 103.23335445 187.94277138 108.45320673 196.92236328 113.71118164 C204.58602252 118.19189393 212.28694638 122.60515756 220 127 C229.67481219 132.51263835 239.31282137 138.08424567 248.921875 143.7109375 C256.5857377 148.19166146 264.28678835 152.60506752 272 157 C281.67481219 162.51263835 291.31282137 168.08424567 300.921875 173.7109375 C308.58574164 178.19166376 316.28692274 182.60482689 324 187 C334.8890732 193.20616496 345.74237224 199.47051157 356.55078125 205.81640625 C359.98993281 207.83429117 363.44254443 209.82263881 366.91796875 211.77734375 C375.14270422 216.4311945 382.36816144 221.1557538 389 228 C389.76570312 228.76828125 390.53140625 229.5365625 391.3203125 230.328125 C404.45770137 244.13351669 414.36907221 263.73723104 414.25726891 283.12926674 C414.26252802 284.30179919 414.26252802 284.30179919 414.26789337 285.49801916 C414.27717404 288.10915373 414.2722927 290.72006363 414.26742554 293.33120728 C414.27116348 295.22554403 414.27576558 297.11987924 414.28115618 299.01421201 C414.29338388 304.21385029 414.29312597 309.41342421 414.29076743 314.61307359 C414.2903592 320.22335186 414.30139905 325.83360951 414.31088257 331.44387817 C414.32749271 342.43379291 414.33299214 353.4236862 414.33410732 364.41361244 C414.33505787 373.34827866 414.3391685 382.2829378 414.34550858 391.21760178 C414.3602559 412.43218032 414.37255828 433.64675376 414.37151146 454.86133766 C414.3714803 455.53957219 414.37144914 456.21780673 414.37141704 456.91659382 C414.37125083 460.3540084 414.37105275 463.79142298 414.37084763 467.22883756 C414.37078779 468.25282271 414.37078779 468.25282271 414.37072675 469.29749443 C414.37064587 470.67799318 414.37056228 472.05849194 414.37047596 473.4389907 C414.36925091 494.90938678 414.38425627 516.37971966 414.41162109 537.85009766 C414.44236867 561.98439567 414.45952662 586.1186413 414.45769465 610.25296438 C414.45703098 623.02673106 414.46251301 635.80042646 414.48405075 648.57417679 C414.502273 659.45121292 414.5066013 670.32814546 414.4930319 681.20519026 C414.48650737 686.75223266 414.48636664 692.29907641 414.5037384 697.84609985 C414.51949678 702.93036322 414.51657708 708.01427085 414.49917014 713.09852569 C414.49610633 714.93163414 414.4997091 716.76476932 414.51089029 718.59784622 C414.59721919 733.76290266 412.03348534 746.34676376 405 760 C404.50886719 760.96550781 404.01773438 761.93101562 403.51171875 762.92578125 C395.33972213 777.96303517 382.90340747 789.16536806 368.125 797.5 C367.0819873 798.09820557 366.03897461 798.69641113 364.96435547 799.31274414 C362.75952383 800.57680162 360.55261265 801.83723803 358.34375 803.09423828 C354.00224803 805.56866617 349.67678355 808.07036532 345.35107422 810.57226562 C342.09260196 812.45623172 338.83183349 814.33616113 335.5703125 816.21484375 C329.04513757 819.97355381 322.5223655 823.7364175 316 827.5 C313.83334417 828.75001879 311.6666775 830.00001878 309.5 831.25 C307.89125 832.178125 307.89125 832.178125 306.25 833.125 C277 850 247.75 866.875 218.5 883.75 C217.42766113 884.36866943 216.35532227 884.98733887 215.25048828 885.62475586 C213.08223736 886.8756448 210.91394303 888.12645852 208.74560547 889.37719727 C203.35282085 892.48798335 197.96077907 895.60004238 192.5703125 898.71484375 C180.76370516 905.53502637 168.93973 912.3232326 157.09527588 919.07736206 C148.05670572 924.23335445 139.05722862 929.45320673 130.07763672 934.71118164 C121.82076358 939.53872836 113.51905969 944.28548671 105.20898438 949.02050781 C97.11255867 953.63502804 89.04193491 958.29095255 81 963 C72.36502228 968.05631048 63.69385765 973.04593006 55 978 C46.22594695 983.0007727 37.47114775 988.03228039 28.75 993.125 C27.78271973 993.68823975 26.81543945 994.25147949 25.81884766 994.83178711 C20.74638513 997.79037021 15.69465402 1000.7793128 10.6640625 1003.80859375 C-10.19677968 1016.30579836 -10.19677968 1016.30579836 -21 1019 C-21.7014917 1019.1767627 -22.4029834 1019.35352539 -23.12573242 1019.53564453 C-45.9595505 1024.75070441 -69.81960732 1021.59664617 -90 1010 C-90.83321777 1009.52272461 -91.66643555 1009.04544922 -92.52490234 1008.55371094 C-97.5413361 1005.66720416 -102.53711151 1002.7467655 -107.5234375 999.80859375 C-113.9517352 996.02101042 -120.40921373 992.28563892 -126.875 988.5625 C-127.95426758 987.94052734 -129.03353516 987.31855469 -130.14550781 986.67773438 C-132.33614966 985.4153306 -134.526905 984.15312377 -136.71777344 982.89111328 C-142.14659942 979.76319852 -147.57319281 976.63141552 -153 973.5 C-155.16665583 972.24998121 -157.3333225 970.99998122 -159.5 969.75 C-198.5 947.25 -198.5 947.25 -201.74951172 945.37524414 C-203.91776264 944.1243552 -206.08605697 942.87354148 -208.25439453 941.62280273 C-213.64717915 938.51201665 -219.03922093 935.39995762 -224.4296875 932.28515625 C-236.23629484 925.46497363 -248.06027 918.6767674 -259.90472412 911.92263794 C-268.94329428 906.76664555 -277.94277138 901.54679327 -286.92236328 896.28881836 C-294.58602252 891.80810607 -302.28694638 887.39484244 -310 883 C-319.67481219 877.48736165 -329.31282137 871.91575433 -338.921875 866.2890625 C-346.5857377 861.80833854 -354.28678835 857.39493248 -362 853 C-371.67481219 847.48736165 -381.31282137 841.91575433 -390.921875 836.2890625 C-398.58574164 831.80833624 -406.28692274 827.39517311 -414 823 C-424.8890732 816.79383504 -435.74237224 810.52948843 -446.55078125 804.18359375 C-449.98993281 802.16570883 -453.44254443 800.17736119 -456.91796875 798.22265625 C-465.14270422 793.5688055 -472.36816144 788.8442462 -479 782 C-479.76570313 781.23171875 -480.53140625 780.4634375 -481.3203125 779.671875 C-494.45770137 765.86648331 -504.36907221 746.26276896 -504.25726891 726.87073326 C-504.26077498 726.08904496 -504.26428105 725.30735666 -504.26789337 724.50198084 C-504.27717404 721.89084627 -504.2722927 719.27993637 -504.26742554 716.66879272 C-504.27116348 714.77445597 -504.27576558 712.88012076 -504.28115618 710.98578799 C-504.29338388 705.78614971 -504.29312597 700.58657579 -504.29076743 695.38692641 C-504.2903592 689.77664814 -504.30139905 684.16639049 -504.31088257 678.55612183 C-504.32749271 667.56620709 -504.33299214 656.5763138 -504.33410732 645.58638756 C-504.33505787 636.65172134 -504.3391685 627.7170622 -504.34550858 618.78239822 C-504.3602559 597.56781968 -504.37255828 576.35324624 -504.37151146 555.13866234 C-504.3714803 554.46042781 -504.37144914 553.78219327 -504.37141704 553.08340618 C-504.37125083 549.6459916 -504.37105275 546.20857702 -504.37084763 542.77116244 C-504.37080774 542.08850567 -504.37076785 541.40584891 -504.37072675 540.70250557 C-504.37064587 539.32200682 -504.37056228 537.94150806 -504.37047596 536.5610093 C-504.36925091 515.09061322 -504.38425627 493.62028034 -504.41162109 472.14990234 C-504.44236867 448.01560433 -504.45952662 423.8813587 -504.45769465 399.74703562 C-504.45703098 386.97326894 -504.46251301 374.19957354 -504.48405075 361.42582321 C-504.502273 350.54878708 -504.5066013 339.67185454 -504.4930319 328.79480974 C-504.48650737 323.24776734 -504.48636664 317.70092359 -504.5037384 312.15390015 C-504.51949678 307.06963678 -504.51657708 301.98572915 -504.49917014 296.90147431 C-504.49610633 295.06836586 -504.4997091 293.23523068 -504.51089029 291.40215378 C-504.59721919 276.23709734 -502.03348534 263.65323624 -495 250 C-494.26330078 248.55173828 -494.26330078 248.55173828 -493.51171875 247.07421875 C-485.33972213 232.03696483 -472.90340747 220.83463194 -458.125 212.5 C-457.0819873 211.90179443 -456.03897461 211.30358887 -454.96435547 210.68725586 C-452.75952383 209.42319838 -450.55261265 208.16276197 -448.34375 206.90576172 C-444.00224803 204.43133383 -439.67678355 201.92963468 -435.35107422 199.42773438 C-432.09260196 197.54376828 -428.83183349 195.66383887 -425.5703125 193.78515625 C-419.04513757 190.02644619 -412.5223655 186.2635825 -406 182.5 C-403.83334417 181.24998121 -401.6666775 179.99998122 -399.5 178.75 C-397.89125 177.821875 -397.89125 177.821875 -396.25 176.875 C-367 160 -337.75 143.125 -308.5 126.25 C-307.42766113 125.63133057 -306.35532227 125.01266113 -305.25048828 124.37524414 C-303.08223736 123.1243552 -300.91394303 121.87354148 -298.74560547 120.62280273 C-293.35282085 117.51201665 -287.96077907 114.39995762 -282.5703125 111.28515625 C-270.76370516 104.46497363 -258.93973 97.6767674 -247.09527588 90.92263794 C-238.05670572 85.76664555 -229.05722862 80.54679327 -220.07763672 75.28881836 C-211.82076358 70.46127164 -203.51905969 65.71451329 -195.20898438 60.97949219 C-187.11255867 56.36497196 -179.04193491 51.70904745 -171 47 C-162.36502228 41.94368952 -153.69385765 36.95406994 -145 32 C-136.22594695 26.9992273 -127.47114775 21.96771961 -118.75 16.875 C-117.78271973 16.31176025 -116.81543945 15.74852051 -115.81884766 15.16821289 C-110.74638513 12.20962979 -105.69465402 9.2206872 -100.6640625 6.19140625 C-79.80322032 -6.30579836 -79.80322032 -6.30579836 -69 -9 C-67.94776245 -9.26514404 -67.94776245 -9.26514404 -66.87426758 -9.53564453 C-44.0404495 -14.75070441 -20.18039268 -11.59664617 0 0 Z " fill="#649AD2" transform="translate(504,11)"/>
<path d="M0 0 C3 1 3 1 4.24609375 2.86328125 C9.42169603 13.50296201 13.15871651 23.85829827 13.13422108 35.76012325 C13.13657331 36.53835002 13.13892554 37.31657678 13.14134905 38.11838618 C13.14802555 40.7357527 13.14758123 43.35306941 13.14717102 45.97044373 C13.15047049 47.86219024 13.15419624 49.75393605 13.1583125 51.64568096 C13.16833127 56.85208064 13.1720491 62.05846878 13.17470181 67.26487672 C13.17860525 72.87724763 13.18818361 78.48960941 13.19691467 84.10197449 C13.21667854 97.66032767 13.22674546 111.21868159 13.23564246 124.77704558 C13.24002572 131.16235423 13.24539246 137.54766205 13.25063133 143.93297005 C13.26764397 165.160293 13.2821627 186.387615 13.28938007 207.6149435 C13.28985483 208.98757351 13.29033072 210.36020351 13.29080774 211.73283351 C13.2911623 212.75386813 13.2911623 212.75386813 13.29152403 213.79552971 C13.2927252 217.24413895 13.29394066 220.69274819 13.29516602 224.14135742 C13.29540617 224.82574 13.29564632 225.51012258 13.29589374 226.21524403 C13.30378324 248.39482984 13.32720772 270.57436212 13.35972196 292.75392456 C13.3940489 316.21293883 13.41373278 339.67191023 13.41702431 363.13095337 C13.41918885 375.91482995 13.4279293 388.69862785 13.45348549 401.482481 C13.47520156 412.37056375 13.4832384 423.25854872 13.47351871 434.14665066 C13.46897662 439.69975195 13.47085519 445.25265153 13.49028015 450.8057251 C13.50793083 455.89565294 13.50689846 460.9852322 13.49138286 466.07516385 C13.48900969 467.91038345 13.49331509 469.74562731 13.50521151 471.58080988 C13.59743204 486.75463435 11.03772104 499.33854151 4 513 C3.50886719 513.96550781 3.01773438 514.93101562 2.51171875 515.92578125 C-5.66027787 530.96303517 -18.09659253 542.16536806 -32.875 550.5 C-33.9180127 551.09820557 -34.96102539 551.69641113 -36.03564453 552.31274414 C-38.24047617 553.57680162 -40.44738735 554.83723803 -42.65625 556.09423828 C-46.99775197 558.56866617 -51.32321645 561.07036532 -55.64892578 563.57226562 C-58.90739804 565.45623172 -62.16816651 567.33616113 -65.4296875 569.21484375 C-71.95486243 572.97355381 -78.4776345 576.7364175 -85 580.5 C-87.16665583 581.75001879 -89.3333225 583.00001878 -91.5 584.25 C-93.10875 585.178125 -93.10875 585.178125 -94.75 586.125 C-138.625 611.4375 -138.625 611.4375 -182.5 636.75 C-183.57233887 637.36866943 -184.64467773 637.98733887 -185.74951172 638.62475586 C-187.91776264 639.8756448 -190.08605697 641.12645852 -192.25439453 642.37719727 C-197.64717915 645.48798335 -203.03922093 648.60004238 -208.4296875 651.71484375 C-220.23629484 658.53502637 -232.06027 665.3232326 -243.90472412 672.07736206 C-252.94329428 677.23335445 -261.94277138 682.45320673 -270.92236328 687.71118164 C-279.17923642 692.53872836 -287.48094031 697.28548671 -295.79101562 702.02050781 C-303.88744133 706.63502804 -311.95806509 711.29095255 -320 716 C-328.63497772 721.05631048 -337.30614235 726.04593006 -346 731 C-354.77405305 736.0007727 -363.52885225 741.03228039 -372.25 746.125 C-373.21728027 746.68823975 -374.18456055 747.25147949 -375.18115234 747.83178711 C-380.25361487 750.79037021 -385.30534598 753.7793128 -390.3359375 756.80859375 C-411.19677968 769.30579836 -411.19677968 769.30579836 -422 772 C-422.7014917 772.1767627 -423.4029834 772.35352539 -424.12573242 772.53564453 C-446.9595505 777.75070441 -470.81960732 774.59664617 -491 763 C-491.83321777 762.52272461 -492.66643555 762.04544922 -493.52490234 761.55371094 C-498.5413361 758.66720416 -503.53711151 755.7467655 -508.5234375 752.80859375 C-514.9517352 749.02101042 -521.40921373 745.28563892 -527.875 741.5625 C-528.95426758 740.94052734 -530.03353516 740.31855469 -531.14550781 739.67773438 C-533.33614966 738.4153306 -535.526905 737.15312377 -537.71777344 735.89111328 C-543.14659942 732.76319852 -548.57319281 729.63141552 -554 726.5 C-556.16665583 725.24998121 -558.3333225 723.99998122 -560.5 722.75 C-599.49999999 700.25 -599.49999999 700.25 -602.74951172 698.37524414 C-604.91776264 697.1243552 -607.08605697 695.87354148 -609.25439453 694.62280273 C-614.64717915 691.51201665 -620.03922093 688.39995762 -625.4296875 685.28515625 C-637.23629484 678.46497363 -649.06027 671.6767674 -660.90472412 664.92263794 C-669.94329428 659.76664555 -678.94277138 654.54679327 -687.92236328 649.28881836 C-695.58602252 644.80810607 -703.28694638 640.39484244 -711 636 C-720.67481219 630.48736165 -730.31282137 624.91575433 -739.921875 619.2890625 C-747.5857377 614.80833854 -755.28678835 610.39493248 -763 606 C-772.67481219 600.48736165 -782.31282137 594.91575433 -791.921875 589.2890625 C-799.58574164 584.80833624 -807.28692274 580.39517311 -815 576 C-825.8890732 569.79383504 -836.74237224 563.52948843 -847.55078125 557.18359375 C-850.98993281 555.16570883 -854.44254443 553.17736119 -857.91796875 551.22265625 C-866.14055188 546.57002337 -873.37474008 541.84805628 -880 535 C-881.20076172 533.77796875 -881.20076172 533.77796875 -882.42578125 532.53125 C-887.27778478 527.38542629 -890.70897289 522.23402195 -894 516 C-833.33333333 481 -772.66666667 446 -712 411 C-709.52901783 413.37323762 -707.42357028 415.63057621 -705.625 418.546875 C-705.20347656 419.21879883 -704.78195312 419.89072266 -704.34765625 420.58300781 C-703.90292969 421.29811523 -703.45820312 422.01322266 -703 422.75 C-687.51207251 447.12564739 -668.13368703 470.36847864 -646 489 C-645.49597656 489.43376953 -644.99195313 489.86753906 -644.47265625 490.31445312 C-585.08837832 541.26424354 -504.69174382 568.6599996 -426.47540283 562.81121826 C-369.27158252 557.72145011 -314.99573844 539.52407904 -268 506 C-266.87247314 505.1968335 -266.87247314 505.1968335 -265.72216797 504.37744141 C-257.86471993 498.73301433 -250.4282419 492.83979804 -243.3671875 486.21875 C-241.33068673 484.3099506 -239.25462983 482.49017421 -237.125 480.6875 C-228.40326287 473.07612776 -220.31925931 464.78180512 -213.1484375 455.6953125 C-211.73809455 453.92597317 -210.28538749 452.18943245 -208.7890625 450.4921875 C-198.07136225 438.27899419 -188.82678445 424.22869276 -181 410 C-181.87946289 409.73082764 -182.75892578 409.46165527 -183.66503906 409.18432617 C-186.8324021 408.05951811 -189.46535153 406.74523251 -192.359375 405.05078125 C-193.88884766 404.16132812 -193.88884766 404.16132812 -195.44921875 403.25390625 C-196.53847656 402.61324219 -197.62773438 401.97257812 -198.75 401.3125 C-199.90720972 400.63743361 -201.06476857 399.96296538 -202.22265625 399.2890625 C-204.62570582 397.88984195 -207.0272392 396.48807065 -209.42773438 395.08447266 C-214.93786812 391.86550635 -220.47007617 388.68480155 -226 385.5 C-228.16676979 384.25017876 -230.33343615 383.0001782 -232.5 381.75 C-233.5725 381.13125 -234.645 380.5125 -235.75 379.875 C-239 378 -242.25 376.125 -245.5 374.25 C-246.5729834 373.6310083 -247.6459668 373.0120166 -248.75146484 372.37426758 C-250.91337884 371.12693452 -253.07516317 369.8793767 -255.23681641 368.6315918 C-260.72514585 365.46391168 -266.21582533 362.30043239 -271.7109375 359.14453125 C-273.93241951 357.86740984 -276.15377502 356.59006838 -278.375 355.3125 C-279.4462915 354.69689209 -280.51758301 354.08128418 -281.62133789 353.44702148 C-286.77009371 350.4784512 -291.8935431 347.47705271 -296.97265625 344.390625 C-297.89836426 343.82819092 -298.82407227 343.26575684 -299.77783203 342.6862793 C-301.50535634 341.63159193 -303.2292253 340.57088523 -304.94873047 339.50317383 C-305.70686035 339.03935303 -306.46499023 338.57553223 -307.24609375 338.09765625 C-307.90279053 337.69039307 -308.5594873 337.28312988 -309.23608398 336.86352539 C-311.12175095 335.78015529 -311.12175095 335.78015529 -314 336 C-315.88156355 338.34715761 -315.88156355 338.34715761 -317.6875 341.375 C-326.97439393 355.79501348 -338.27157252 368.68482166 -352 379 C-352.9384375 379.71542969 -353.876875 380.43085937 -354.84375 381.16796875 C-387.52044328 404.95963331 -428.96785935 415.65834544 -469.0625 409.9375 C-498.97306131 405.13189998 -525.53098696 392.07353121 -548 372 C-548.82113281 371.31164062 -549.64226562 370.62328125 -550.48828125 369.9140625 C-556.44982671 364.86888586 -561.22659391 359.16323663 -566 353 C-566.75410156 352.04996094 -567.50820313 351.09992188 -568.28515625 350.12109375 C-593.63505076 317.46625537 -603.25490847 275.95963692 -598.12524414 235.203125 C-594.13241855 209.06594161 -582.75415548 183.39282134 -566 163 C-565.53835449 162.43297363 -565.07670898 161.86594727 -564.60107422 161.28173828 C-539.32838858 130.38919447 -503.14660535 109.97344547 -463.2890625 105.31640625 C-421.39202084 101.77964299 -380.10142539 113.44876629 -347.72265625 140.65625 C-346.82417969 141.4296875 -345.92570313 142.203125 -345 143 C-343.60587891 144.19109375 -343.60587891 144.19109375 -342.18359375 145.40625 C-331.49866783 154.79828502 -320.44546028 167.10907944 -314 180 C-309.65439694 179.05408722 -306.08932353 176.98583739 -302.25 174.8125 C-301.46560547 174.37252686 -300.68121094 173.93255371 -299.87304688 173.47924805 C-291.30501637 168.65016092 -282.82256759 163.67331345 -274.3359375 158.703125 C-267.94718008 154.96365411 -261.53883924 151.25874966 -255.125 147.5625 C-254.04541016 146.94028564 -252.96582031 146.31807129 -251.85351562 145.67700195 C-249.6631748 144.41488483 -247.47274498 143.15292215 -245.28222656 141.89111328 C-239.85340058 138.76319852 -234.42680719 135.63141552 -229 132.5 C-226.83334417 131.24998121 -224.6666775 129.99998122 -222.5 128.75 C-221.4275 128.13125 -220.355 127.5125 -219.25 126.875 C-209.49999999 121.25 -209.49999999 121.25 -206.24951172 119.37475586 C-204.08442929 118.12564482 -201.91939018 116.87645871 -199.75439453 115.62719727 C-194.31384294 112.48797691 -188.87252784 109.35009437 -183.4296875 106.21484375 C-172.97793721 100.19252625 -162.53706885 94.15319743 -152.125 88.0625 C-142.30861542 82.32246579 -132.44534506 76.66676663 -122.56738281 71.03369141 C-111.42847496 64.68076105 -100.3206742 58.27453369 -89.21777344 51.85888672 C-83.81329355 48.73675395 -78.40652588 45.61858796 -73 42.5 C-70.8333225 41.25001878 -68.66665583 40.00001879 -66.5 38.75 C-53.5 31.25 -53.5 31.25 -50.24560547 29.37255859 C-48.0934787 28.13088473 -45.94145927 26.88902478 -43.78955078 25.64697266 C-38.74969023 22.73833177 -33.70882508 19.83148102 -28.66400146 16.93145752 C-26.88250422 15.90724335 -25.10135678 14.88242349 -23.3203125 13.85742188 C-21.08923375 12.57366625 -18.85750427 11.29104061 -16.625 10.00976562 C-15.61179687 9.42646484 -14.59859375 8.84316406 -13.5546875 8.2421875 C-12.60174805 7.69401367 -11.64880859 7.14583984 -10.66699219 6.58105469 C-8.20814092 5.12339075 -5.82891954 3.58422626 -3.4453125 2.0078125 C-2.30835938 1.34523438 -1.17140625 0.68265625 0 0 Z " fill="#00589C" transform="translate(905,258)"/>
<path d="M0 0 C0.75168457 0.53544434 1.50336914 1.07088867 2.27783203 1.62255859 C10.13681548 7.26808864 17.57459993 13.16245816 24.63671875 19.78515625 C26.65111532 21.67302874 28.70385875 23.46986286 30.8125 25.25 C39.90532684 33.18283658 48.42441455 41.85848833 55.88671875 51.33984375 C57.28274539 53.09713422 58.72301127 54.82026588 60.20703125 56.50390625 C87 87.02922886 87 87.02922886 87 97 C86.36835937 97.35078613 85.73671875 97.70157227 85.0859375 98.06298828 C71.33297865 105.70985139 57.66630949 113.48090039 44.08984375 121.4375 C37.78429581 125.1321331 31.45705564 128.78852681 25.125 132.4375 C23.50476929 133.37130493 23.50476929 133.37130493 21.85180664 134.32397461 C19.66203666 135.58576826 17.47217645 136.84740534 15.28222656 138.10888672 C8.78663684 141.85143641 2.29393958 145.59900243 -4.19897461 149.34619141 C-9.28625032 152.28182759 -14.37426104 155.21616612 -19.4649353 158.14590454 C-21.87543748 159.53328095 -24.28551376 160.92139624 -26.69555664 162.30957031 C-28.40143968 163.29173815 -30.10793986 164.27283385 -31.81445312 165.25390625 C-33.35842773 166.14335937 -33.35842773 166.14335937 -34.93359375 167.05078125 C-35.84165771 167.57325439 -36.74972168 168.09572754 -37.68530273 168.6340332 C-39.49126201 169.69977966 -41.25521129 170.83680752 -43 172 C-44.953125 171.96484375 -44.953125 171.96484375 -47 171 C-48.859375 168.62890625 -48.859375 168.62890625 -50.75 165.5625 C-59.74578828 151.52110353 -70.66705145 139.05850664 -84 129 C-84.93972656 128.28328125 -85.87945313 127.5665625 -86.84765625 126.828125 C-119.58005406 103.00738646 -161.10203244 92.28711689 -201.25 98.125 C-230.8059827 102.91826067 -257.8335815 115.97970777 -280 136 C-280.81855469 136.68707031 -281.63710938 137.37414062 -282.48046875 138.08203125 C-288.44883145 143.12586272 -293.259994 148.80276242 -298 155 C-298.804375 156.03898438 -299.60875 157.07796875 -300.4375 158.1484375 C-324.70103215 190.29214856 -334.34968708 230.76372254 -329.22851562 270.57104492 C-325.09756571 297.49354102 -314.00189138 322.77363255 -297 344 C-296.55527344 344.55977539 -296.11054688 345.11955078 -295.65234375 345.69628906 C-271.09118955 376.32931634 -234.2854106 396.12717834 -195.2890625 400.68359375 C-153.33747465 404.22496156 -112.06610979 392.51838969 -79.65625 365.27734375 C-78.7796875 364.52582031 -77.903125 363.77429688 -77 363 C-76.1440625 362.27941406 -75.288125 361.55882812 -74.40625 360.81640625 C-62.98488598 350.92846611 -54.33761047 338.5064157 -46 326 C-42.76879704 326.65406544 -40.28005757 327.81984478 -37.421875 329.44921875 C-36.52106201 329.9601709 -35.62024902 330.47112305 -34.69213867 330.99755859 C-33.72123291 331.55523926 -32.75032715 332.11291992 -31.75 332.6875 C-30.22113159 333.55882568 -30.22113159 333.55882568 -28.66137695 334.44775391 C-19.45899047 339.70525394 -10.30694842 345.04891441 -1.16015625 350.40234375 C8.43942238 356.01678675 18.08135951 361.5580032 27.71777344 367.10888672 C32.0661306 369.61427013 36.41302504 372.1221843 40.75976562 374.63037109 C42.90677144 375.86920251 45.05390528 377.10781206 47.20117188 378.34619141 C52.28212569 381.27661993 57.36214925 384.20862965 62.43914795 387.14590454 C64.83930101 388.53438027 67.23994361 389.92200833 69.640625 391.30957031 C71.33641618 392.2901883 73.03149776 393.27203309 74.7265625 394.25390625 C76.26570312 395.14335938 76.26570312 395.14335938 77.8359375 396.05078125 C79.19017822 396.83449097 79.19017822 396.83449097 80.57177734 397.6340332 C82.687686 398.8243116 84.81728289 399.93850686 87 401 C85.41951183 405.44406081 83.12180752 409.33617484 80.625 413.3125 C80.18728271 414.00964111 79.74956543 414.70678223 79.29858398 415.42504883 C63.75292947 439.79457758 43.4554078 463.83517803 20.73046875 481.81640625 C18.94905585 483.24102686 17.19912964 484.70621073 15.48828125 486.21484375 C-23.31526616 520.25999994 -77.20400774 543.41655714 -128 551 C-129.17175781 551.18046875 -130.34351563 551.3609375 -131.55078125 551.546875 C-162.14288744 556.13414118 -192.34735746 556.60882247 -223 552 C-223.94552734 551.86078125 -224.89105469 551.7215625 -225.86523438 551.578125 C-278.57368681 543.56614349 -327.3876698 521.00848039 -369 488 C-370.34771484 486.94425781 -370.34771484 486.94425781 -371.72265625 485.8671875 C-385.48989338 474.8777287 -398.66477859 462.49632904 -410 449 C-410.44972168 448.46938965 -410.89944336 447.9387793 -411.36279297 447.39208984 C-424.07599208 432.33297831 -435.36880324 416.20222342 -445 399 C-445.45197754 398.1970752 -445.90395508 397.39415039 -446.36962891 396.56689453 C-455.07909729 380.93056347 -461.81257468 364.77712386 -468 348 C-468.28456055 347.2481543 -468.56912109 346.49630859 -468.86230469 345.72167969 C-480.33423294 315.33113291 -484.22340181 281.66090526 -484.25 249.375 C-484.25100708 248.52094574 -484.25201416 247.66689148 -484.25305176 246.78695679 C-484.23562361 224.79801077 -481.92366161 203.44692703 -477 182 C-476.80067871 181.09282227 -476.60135742 180.18564453 -476.39599609 179.25097656 C-465.43578138 129.68954375 -440.83680502 83.69792318 -407 46 C-406.52965332 45.47325684 -406.05930664 44.94651367 -405.57470703 44.40380859 C-396.90960933 34.72773298 -387.96832148 25.34481635 -378 17 C-377.49887695 16.56913086 -376.99775391 16.13826172 -376.48144531 15.69433594 C-303.23075435 -47.15839197 -208.96152 -67.05719151 0 0 Z " fill="#FEFEFE" transform="translate(637,267)"/>
<path d="M0 0 C2.47098217 2.37323762 4.57642972 4.63057621 6.375 7.546875 C6.79652344 8.21879883 7.21804687 8.89072266 7.65234375 9.58300781 C8.31943359 10.65566895 8.31943359 10.65566895 9 11.75 C24.48792749 36.12564739 43.86631297 59.36847864 66 78 C66.50402344 78.43376953 67.00804687 78.86753906 67.52734375 79.31445312 C126.91162168 130.26424354 207.30825618 157.6599996 285.52459717 151.81121826 C342.72841748 146.72145011 397.00426156 128.52407904 444 95 C444.75168457 94.46455566 445.50336914 93.92911133 446.27783203 93.37744141 C454.13528007 87.73301433 461.5717581 81.83979804 468.6328125 75.21875 C470.66931327 73.3099506 472.74537017 71.49017421 474.875 69.6875 C483.59673713 62.07612776 491.68074069 53.78180512 498.8515625 44.6953125 C500.26190545 42.92597317 501.71461251 41.18943245 503.2109375 39.4921875 C511.61860742 29.91135433 518.37189934 19.20308121 525.33105469 8.55175781 C527.2032668 5.68921232 529.09595025 2.84142809 531 0 C543.01310618 5.62585606 554.33356537 12.36589496 565.75292969 19.09423828 C571.10985526 22.23831054 576.49221436 25.33797616 581.875 28.4375 C582.95426758 29.05947266 584.03353516 29.68144531 585.14550781 30.32226562 C587.33614966 31.5846694 589.526905 32.84687623 591.71777344 34.10888672 C597.14659942 37.23680148 602.57319281 40.36858448 608 43.5 C610.16665583 44.75001879 612.3333225 46.00001878 614.5 47.25 C627.5 54.75 640.5 62.25 653.5 69.75 C654.57338623 70.3692334 655.64677246 70.9884668 656.75268555 71.62646484 C658.91049803 72.87141282 661.06821353 74.1165289 663.22583008 75.36181641 C668.77716592 78.56552651 674.33036541 81.7659363 679.88671875 84.9609375 C691.32032959 91.53921282 702.73299389 98.13939727 714 105 C707.04203088 120.22296007 693.39246661 131.45352522 679.125 139.5 C678.0819873 140.09820557 677.03897461 140.69641113 675.96435547 141.31274414 C673.75952383 142.57680162 671.55261265 143.83723803 669.34375 145.09423828 C665.00224803 147.56866617 660.67678355 150.07036532 656.35107422 152.57226562 C653.09260196 154.45623172 649.83183349 156.33616113 646.5703125 158.21484375 C640.04513757 161.97355381 633.5223655 165.7364175 627 169.5 C624.83334417 170.75001879 622.6666775 172.00001878 620.5 173.25 C619.4275 173.86875 618.355 174.4875 617.25 175.125 C588 192 558.75 208.875 529.5 225.75 C528.42766113 226.36866943 527.35532227 226.98733887 526.25048828 227.62475586 C524.08223736 228.8756448 521.91394303 230.12645852 519.74560547 231.37719727 C514.35282085 234.48798335 508.96077907 237.60004238 503.5703125 240.71484375 C491.76370516 247.53502637 479.93973 254.3232326 468.09527588 261.07736206 C459.05670572 266.23335445 450.05722862 271.45320673 441.07763672 276.71118164 C432.82076358 281.53872836 424.51905969 286.28548671 416.20898438 291.02050781 C408.11255867 295.63502804 400.04193491 300.29095255 392 305 C383.36502228 310.05631048 374.69385765 315.04593006 366 320 C357.22594695 325.0007727 348.47114775 330.03228039 339.75 335.125 C338.78271973 335.68823975 337.81543945 336.25147949 336.81884766 336.83178711 C331.74638513 339.79037021 326.69465402 342.7793128 321.6640625 345.80859375 C300.80322032 358.30579836 300.80322032 358.30579836 290 361 C289.2985083 361.1767627 288.5970166 361.35352539 287.87426758 361.53564453 C265.0404495 366.75070441 241.18039268 363.59664617 221 352 C220.16678223 351.52272461 219.33356445 351.04544922 218.47509766 350.55371094 C213.4586639 347.66720416 208.46288849 344.7467655 203.4765625 341.80859375 C197.0482648 338.02101042 190.59078627 334.28563892 184.125 330.5625 C183.04573242 329.94052734 181.96646484 329.31855469 180.85449219 328.67773438 C178.66385034 327.4153306 176.473095 326.15312377 174.28222656 324.89111328 C168.85340058 321.76319852 163.42680719 318.63141552 158 315.5 C155.83334417 314.24998121 153.6666775 312.99998122 151.5 311.75 C112.50000001 289.25 112.50000001 289.25 109.25048828 287.37524414 C107.08223736 286.1243552 104.91394303 284.87354148 102.74560547 283.62280273 C97.35282085 280.51201665 91.96077907 277.39995762 86.5703125 274.28515625 C74.76370516 267.46497363 62.93973 260.6767674 51.09527588 253.92263794 C42.05670572 248.76664555 33.05722862 243.54679327 24.07763672 238.28881836 C16.41397748 233.80810607 8.71305362 229.39484244 1 225 C-8.67481219 219.48736165 -18.31282137 213.91575433 -27.921875 208.2890625 C-35.5857377 203.80833854 -43.28678835 199.39493248 -51 195 C-60.67481219 189.48736165 -70.31282137 183.91575433 -79.921875 178.2890625 C-87.58574164 173.80833624 -95.28692274 169.39517311 -103 165 C-113.8890732 158.79383504 -124.74237224 152.52948843 -135.55078125 146.18359375 C-138.98993281 144.16570883 -142.44254443 142.17736119 -145.91796875 140.22265625 C-154.14055188 135.57002337 -161.37474008 130.84805628 -168 124 C-168.80050781 123.1853125 -169.60101563 122.370625 -170.42578125 121.53125 C-175.27778478 116.38542629 -178.70897289 111.23402195 -182 105 C-121.33333333 70 -60.66666667 35 0 0 Z " fill="#004482" transform="translate(193,669)"/>
<path d="M0 0 C0.92941406 0.7940625 1.85882812 1.588125 2.81640625 2.40625 C14.1079005 12.33145774 25.4049571 25.30516323 32 39 C31.36835937 39.35078613 30.73671875 39.70157227 30.0859375 40.06298828 C16.33297865 47.70985139 2.66630949 55.48090039 -10.91015625 63.4375 C-17.21570419 67.1321331 -23.54294436 70.78852681 -29.875 74.4375 C-30.95515381 75.06003662 -32.03530762 75.68257324 -33.14819336 76.32397461 C-35.33796334 77.58576826 -37.52782355 78.84740534 -39.71777344 80.10888672 C-45.14659942 83.23680148 -50.57319281 86.36858448 -56 89.5 C-58.16665583 90.75001879 -60.3333225 92.00001878 -62.5 93.25 C-63.5725 93.86875 -64.645 94.4875 -65.75 95.125 C-103.66666667 117 -141.58333333 138.875 -179.5 160.75 C-180.57386963 161.36955566 -181.64773926 161.98911133 -182.75415039 162.62744141 C-184.90692816 163.86939744 -187.05975963 165.1112604 -189.21264648 166.35302734 C-194.24616915 169.25646913 -199.27918048 172.160785 -204.31021118 175.06854248 C-206.08362608 176.09345403 -207.85721646 177.11806123 -209.63085938 178.14257812 C-211.84995773 179.42452738 -214.06873016 180.70704107 -216.28710938 181.99023438 C-222.16127054 185.382778 -228.0562835 188.73072173 -234 192 C-242.06037419 175.84342773 -248.5302158 159.78551638 -252 142 C-252.20496094 141.08476563 -252.40992188 140.16953125 -252.62109375 139.2265625 C-260.01263686 101.19834762 -249.03440629 60.40107371 -227.77734375 28.68359375 C-225.59791812 25.71308804 -223.33876026 22.84669199 -221 20 C-220.53835449 19.43297363 -220.07670898 18.86594727 -219.60107422 18.28173828 C-194.32838858 -12.61080553 -158.14660535 -33.02655453 -118.2890625 -37.68359375 C-74.80474418 -41.35434789 -33.14657357 -28.53363578 0 0 Z " fill="#649AD2" transform="translate(560,401)"/>
<path d="M0 0 C4.99107254 2.16540927 9.56668693 4.9144196 14.234375 7.69921875 C16.39805049 8.97591653 18.56212666 10.25193546 20.7265625 11.52734375 C21.84256836 12.18669922 22.95857422 12.84605469 24.10839844 13.52539062 C29.50563775 16.70097199 34.93198851 19.82553124 40.359375 22.94921875 C42.54690391 24.20958525 44.73440376 25.47000217 46.921875 26.73046875 C48.00726563 27.35566406 49.09265625 27.98085938 50.2109375 28.625 C53.4491266 30.49140255 56.68576938 32.36045638 59.921875 34.23046875 C69.39066025 39.70085925 78.86287744 45.16440708 88.36488342 50.5769043 C94.74437389 54.21082767 101.11580618 57.85868181 107.484375 61.51171875 C108.59151855 62.14513184 109.69866211 62.77854492 110.83935547 63.43115234 C113.95603172 65.21896619 117.06505341 67.01934734 120.171875 68.82421875 C121.10483398 69.35740723 122.03779297 69.8905957 122.99902344 70.43994141 C123.84368164 70.93413574 124.68833984 71.42833008 125.55859375 71.9375 C126.66593872 72.57812378 126.66593872 72.57812378 127.7956543 73.23168945 C129.484375 74.51171875 129.484375 74.51171875 130.484375 77.51171875 C121.67919791 93.99320407 107.36932605 109.3275591 92.484375 120.51171875 C91.5459375 121.22714844 90.6075 121.94257812 89.640625 122.6796875 C56.96393172 146.47135206 15.51651565 157.17006419 -24.578125 151.44921875 C-54.48868631 146.64361873 -81.04661196 133.58524996 -103.515625 113.51171875 C-104.33675781 112.82335937 -105.15789062 112.135 -106.00390625 111.42578125 C-116.4303933 102.60198392 -127.32780536 89.76442122 -133.515625 77.51171875 C-132.29978575 73.864201 -131.51274503 73.65916132 -128.23046875 71.8671875 C-127.32014893 71.36276123 -126.4098291 70.85833496 -125.47192383 70.33862305 C-124.47572021 69.79761963 -123.4795166 69.25661621 -122.453125 68.69921875 C-120.32985872 67.52370629 -118.20748914 66.34657295 -116.0859375 65.16796875 C-114.9918457 64.56210937 -113.89775391 63.95625 -112.77050781 63.33203125 C-107.74890677 60.52367111 -102.78846458 57.614006 -97.828125 54.69921875 C-89.09012622 49.57832837 -80.31554892 44.52510261 -71.515625 39.51171875 C-61.8561163 34.00802412 -52.23270952 28.44650805 -42.63989258 22.82714844 C-33.30515987 17.36802113 -23.91453553 12.00824227 -14.51367188 6.6640625 C-13.38380859 6.02082031 -12.25394531 5.37757813 -11.08984375 4.71484375 C-10.08526123 4.14411133 -9.08067871 3.57337891 -8.0456543 2.98535156 C-2.19030463 -0.42513677 -2.19030463 -0.42513677 0 0 Z " fill="#004482" transform="translate(460.515625,516.48828125)"/>
<path d="M0 0 C11.55 0 23.1 0 35 0 C35 11.22 35 22.44 35 34 C46.22 34 57.44 34 69 34 C69 45.22 69 56.44 69 68 C57.78 68 46.56 68 35 68 C35 79.22 35 90.44 35 102 C23.45 102 11.9 102 0 102 C0 90.78 0 79.56 0 68 C-11.22 68 -22.44 68 -34 68 C-34 56.78 -34 45.56 -34 34 C-22.78 34 -11.56 34 0 34 C0 22.78 0 11.56 0 0 Z " fill="#FAFCFD" transform="translate(824,465)"/>
<path d="M0 0 C11.22 0 22.44 0 34 0 C34 11.22 34 22.44 34 34 C45.22 34 56.44 34 68 34 C68 45.22 68 56.44 68 68 C56.78 68 45.56 68 34 68 C34 79.22 34 90.44 34 102 C22.78 102 11.56 102 0 102 C0 90.78 0 79.56 0 68 C-11.22 68 -22.44 68 -34 68 C-34 56.78 -34 45.56 -34 34 C-22.78 34 -11.56 34 0 34 C0 22.78 0 11.56 0 0 Z " fill="#FFFFFF" transform="translate(697,465)"/>
</svg>
